<svg width="237" height="213" viewBox="0 0 237 213" fill="none" xmlns="http://www.w3.org/2000/svg">
<path fill-rule="evenodd" clip-rule="evenodd" d="M106.396 7.60474C161.02 7.60474 205.3 51.8857 205.3 106.508C205.3 161.131 161.02 205.411 106.396 205.411C51.7736 205.411 7.49341 161.131 7.49341 106.508C7.49341 51.8857 51.7736 7.60474 106.396 7.60474Z" stroke="white" stroke-width="14.0001" stroke-miterlimit="22.9256"/>
<path d="M234.261 27.3139C230.942 22.4462 224.305 21.1903 219.439 24.5091L103.221 103.747L77.4098 69.2028C74.7025 65.5911 69.8862 63.922 65.3682 65.4263C59.7178 67.3066 56.6613 73.4105 58.5416 79.0605L79.6661 142.543C80.4644 144.902 81.7664 147.235 83.5333 149.207C90.5228 157.015 102.519 157.68 110.328 150.69L111.706 149.457L232.565 41.2717C236.496 37.7575 237.313 31.7881 234.261 27.3139Z" fill="#7ED957"/>
</svg>
