<svg width="866" height="213" viewBox="0 0 866 213" fill="none" xmlns="http://www.w3.org/2000/svg">
<path d="M262.262 44.2355C262.262 42.9921 262.538 42.0593 263.091 41.4376C263.609 40.7807 264.334 40.47 265.198 40.47H329.796C330.659 40.47 331.385 40.7807 331.903 41.3684C332.456 41.9905 332.732 42.8885 332.732 44.132V61.4728C332.732 62.6823 332.456 63.6151 331.903 64.2364C331.385 64.8237 330.659 65.1344 329.796 65.1344H310.969V177.058C310.969 178.198 310.693 179.061 310.105 179.684C309.553 180.271 308.862 180.582 308.033 180.582H286.961C286.062 180.582 285.372 180.271 284.819 179.684C284.301 179.061 284.024 178.198 284.024 177.058V65.1344H265.198C264.334 65.1344 263.609 64.8237 263.091 64.2364C262.538 63.6151 262.262 62.6823 262.262 61.4728V44.2355ZM329.692 89.9032C329.485 89.4534 329.313 88.9704 329.174 88.4518C329.036 87.9341 329.036 87.4155 329.14 86.9325C329.243 86.4139 329.485 85.9305 329.899 85.4468C330.314 84.9634 330.936 84.4795 331.8 83.9266C333.63 82.7867 335.531 81.6812 337.534 80.6105C339.538 79.5745 341.679 78.6417 344.029 77.8125C346.343 77.018 348.899 76.3611 351.697 75.8437C354.495 75.3252 357.707 75.0833 361.266 75.0833C365.446 75.0833 369.591 75.7746 373.667 77.156C377.743 78.5381 381.371 80.5761 384.583 83.3053C387.796 86.0341 390.386 89.419 392.39 93.4268C394.359 97.4335 395.361 102.063 395.361 107.348V151.426C395.361 155.606 394.739 159.268 393.531 162.446C392.321 165.589 390.732 168.319 388.728 170.633C386.759 172.913 384.514 174.813 382.027 176.332C379.54 177.852 376.983 179.061 374.427 179.959C371.87 180.892 369.384 181.514 366.965 181.894C364.548 182.274 362.405 182.447 360.575 182.447C356.602 182.447 352.561 181.825 348.415 180.582C344.27 179.338 340.505 177.404 337.085 174.779C333.7 172.153 330.902 168.767 328.759 164.588C326.583 160.408 325.513 155.399 325.513 149.561V147.315C325.513 141.996 326.411 137.436 328.207 133.567C329.969 129.697 332.352 126.52 335.323 124.067C338.294 121.615 341.714 119.784 345.686 118.609C349.625 117.434 353.701 116.882 357.95 116.951L369.867 117.055V109.869C369.867 108.315 369.625 106.726 369.177 105.102C368.693 103.513 367.933 102.028 366.931 100.681C365.929 99.3335 364.617 98.1936 362.993 97.3299C361.369 96.4663 359.4 96.017 357.121 96.017C352.94 96.017 349.451 96.5699 346.653 97.6754C343.855 98.8149 341.507 100.025 339.607 101.371C338.674 101.994 337.741 102.373 336.878 102.477C336.014 102.615 335.288 102.201 334.736 101.164L329.692 89.9032ZM369.867 135.19H365.169C362.405 135.19 360.126 135.536 358.33 136.192C356.533 136.883 355.117 137.781 354.08 138.921C353.044 140.062 352.284 141.408 351.87 142.929C351.421 144.448 351.213 146.003 351.213 147.627V149.146C351.213 151.081 351.525 152.773 352.111 154.156C352.734 155.537 353.494 156.642 354.426 157.54C355.359 158.404 356.395 159.061 357.535 159.44C358.675 159.855 359.815 160.062 360.955 160.062C362.026 160.062 363.062 159.89 364.098 159.509C365.135 159.13 366.102 158.577 366.965 157.783C367.829 157.023 368.52 156.021 369.072 154.846C369.591 153.671 369.867 152.256 369.867 150.563V135.19ZM402.615 150.356C402.615 148.387 404.273 147.419 407.555 147.419H424.102C425.863 147.419 426.727 148.456 426.727 150.528V152.428C426.727 154.985 427.66 156.954 429.525 158.37C431.356 159.786 433.532 160.476 436.02 160.476C438.507 160.476 440.683 159.717 442.548 158.197C444.379 156.677 445.312 154.604 445.312 151.979C445.312 150.183 444.586 148.525 443.136 147.073C441.685 145.623 439.854 144.241 437.643 142.894C435.432 141.547 432.945 140.165 430.182 138.748C427.418 137.332 424.724 135.743 422.098 133.982C419.438 132.392 416.951 130.596 414.705 128.696C412.46 126.762 410.492 124.62 408.833 122.271C407.209 119.922 405.932 117.331 404.999 114.533C404.101 111.735 403.651 108.626 403.651 105.206C403.651 100.957 404.446 96.9841 406.07 93.3233C407.694 89.6613 409.939 86.4831 412.875 83.7883C415.776 81.0939 419.231 78.9524 423.238 77.3975C427.245 75.8437 431.598 75.0833 436.365 75.0833C441.685 75.0833 446.383 75.809 450.493 77.2939C454.604 78.7797 458.024 80.8523 460.753 83.5468C463.482 86.2412 465.555 89.4882 467.006 93.2534C468.422 97.0185 469.112 101.164 469.112 105.655V107.383C469.112 108.453 468.837 109.109 468.249 109.351C467.697 109.593 466.695 109.697 465.278 109.697H449.284C448.144 109.697 447.316 109.421 446.867 108.902C446.383 108.35 446.141 107.59 446.141 106.657V105.241C446.141 102.754 445.346 100.715 443.723 99.1611C442.099 97.6062 440.061 96.8462 437.609 96.8462C435.018 96.8462 432.945 97.7098 431.425 99.437C429.905 101.13 429.145 103.203 429.145 105.655C429.145 107.278 429.456 108.591 430.043 109.662C430.63 110.699 431.632 111.7 433.049 112.667C434.465 113.669 436.261 114.706 438.437 115.881C440.648 117.02 443.343 118.471 446.555 120.232C450.217 122.098 453.534 124.206 456.504 126.485C459.475 128.8 462.066 131.252 464.207 133.878C466.384 136.503 468.042 139.336 469.251 142.375C470.426 145.415 471.012 148.663 471.012 152.082C471.012 156.539 470.219 160.616 468.595 164.346C466.971 168.042 464.657 171.22 461.72 173.88C458.749 176.575 455.157 178.647 450.977 180.167C446.797 181.687 442.168 182.447 437.125 182.447C430.113 182.447 424.378 181.584 419.922 179.856C415.466 178.163 411.942 175.884 409.386 173.016C406.83 170.149 405.068 166.867 404.066 163.206C403.099 159.544 402.615 155.744 402.615 151.772V150.356ZM550.085 82.5796C550.085 92.4249 548.668 101.337 545.835 109.248C543.003 117.193 538.858 123.756 533.365 128.938L552.123 175.02C552.64 176.506 552.675 177.784 552.226 178.924C551.742 180.029 550.879 180.582 549.67 180.582H528.943C528.01 180.582 527.25 180.374 526.698 179.925C526.111 179.476 525.627 178.682 525.212 177.542L510.669 140.303C509.806 140.441 508.942 140.545 508.113 140.614C507.25 140.683 506.386 140.752 505.522 140.821V177.231C505.522 179.476 504.279 180.582 501.757 180.582H483.068C480.892 180.582 479.821 179.476 479.821 177.231V43.9248C479.821 41.6099 480.892 40.47 483.068 40.47H501.757C504.279 40.47 505.522 41.6099 505.522 43.9248V113.981C509.046 113.359 511.913 112.046 514.193 110.076C516.439 108.073 518.2 105.552 519.478 102.511C520.756 99.5062 521.654 96.0513 522.173 92.2518C522.691 88.4518 522.933 84.4104 522.933 80.1611C522.933 79.0903 523.244 78.2611 523.9 77.7089C524.521 77.1904 525.419 76.9145 526.559 76.9145H546.042C546.975 76.9145 547.908 77.2939 548.771 78.0887C549.635 78.8488 550.085 80.3689 550.085 82.5796Z" fill="white"/>
<path d="M572.784 46.7477C572.784 45.539 573.095 44.5718 573.682 43.8806C574.304 43.1549 575.133 42.8098 576.238 42.8098H636.76C638.66 42.8098 639.593 44.0533 639.593 46.5754V63.8123C639.593 66.2652 638.66 67.4743 636.76 67.4743H599.729V100.015H629.264C630.162 100.015 630.922 100.291 631.544 100.81C632.2 101.363 632.511 102.261 632.511 103.539V120.846C632.511 122.054 632.2 122.918 631.613 123.471C630.991 123.989 630.231 124.265 629.264 124.265H599.729V158.464H637.278C638.073 158.464 638.763 158.74 639.351 159.328C639.938 159.915 640.215 160.778 640.215 161.919V179.363C640.215 180.572 639.938 181.47 639.351 182.058C638.763 182.645 638.073 182.921 637.278 182.921H576.238C573.924 182.921 572.784 181.644 572.784 179.087V46.7477ZM650.232 92.2426C650.025 91.7933 649.852 91.3102 649.714 90.7917C649.576 90.2739 649.576 89.7554 649.68 89.2719C649.783 88.7538 650.025 88.2703 650.439 87.7866C650.854 87.3032 651.476 86.819 652.34 86.2661C654.17 85.1266 656.071 84.021 658.074 82.9503C660.077 81.9139 662.219 80.9816 664.568 80.1523C666.882 79.3575 669.439 78.701 672.237 78.1832C675.035 77.665 678.247 77.4231 681.805 77.4231C685.986 77.4231 690.131 78.1144 694.207 79.4958C698.283 80.878 701.911 82.9159 705.123 85.6447C708.335 88.3739 710.926 91.7589 712.93 95.7663C714.899 99.7734 715.901 104.403 715.901 109.688V153.766C715.901 157.946 715.279 161.608 714.07 164.786C712.861 167.929 711.272 170.658 709.268 172.972C707.299 175.253 705.054 177.153 702.566 178.672C700.08 180.192 697.523 181.401 694.967 182.299C692.41 183.232 689.924 183.854 687.505 184.234C685.087 184.614 682.945 184.787 681.114 184.787C677.142 184.787 673.101 184.165 668.955 182.921C664.81 181.678 661.044 179.744 657.624 177.118C654.239 174.493 651.441 171.107 649.299 166.928C647.123 162.747 646.053 157.738 646.053 151.901V149.655C646.053 144.336 646.951 139.776 648.747 135.907C650.509 132.037 652.892 128.859 655.863 126.407C658.833 123.954 662.253 122.124 666.226 120.949C670.164 119.774 674.24 119.222 678.49 119.291L690.407 119.394V112.209C690.407 110.655 690.165 109.066 689.717 107.442C689.232 105.853 688.472 104.368 687.471 103.02C686.469 101.673 685.157 100.533 683.533 99.6698C681.909 98.8062 679.94 98.3568 677.66 98.3568C673.48 98.3568 669.991 98.9097 667.193 100.015C664.395 101.155 662.046 102.364 660.146 103.711C659.214 104.333 658.281 104.713 657.417 104.816C656.554 104.955 655.828 104.54 655.276 103.504L650.232 92.2426ZM690.407 137.53H685.709C682.945 137.53 680.666 137.876 678.869 138.532C677.073 139.223 675.656 140.121 674.62 141.261C673.584 142.401 672.824 143.748 672.409 145.268C671.961 146.788 671.753 148.343 671.753 149.966V151.486C671.753 153.42 672.064 155.113 672.651 156.495C673.273 157.877 674.033 158.982 674.966 159.88C675.899 160.744 676.935 161.4 678.075 161.78C679.214 162.195 680.355 162.402 681.495 162.402C682.565 162.402 683.602 162.23 684.638 161.849C685.674 161.469 686.642 160.916 687.505 160.123C688.369 159.363 689.06 158.361 689.612 157.186C690.131 156.011 690.407 154.595 690.407 152.903V137.53ZM723.155 152.695C723.155 150.727 724.813 149.759 728.094 149.759H744.641C746.403 149.759 747.267 150.795 747.267 152.868V154.768C747.267 157.324 748.2 159.293 750.065 160.709C751.896 162.126 754.072 162.816 756.559 162.816C759.047 162.816 761.223 162.057 763.088 160.537C764.919 159.016 765.852 156.944 765.852 154.318C765.852 152.522 765.126 150.865 763.676 149.413C762.224 147.963 760.393 146.581 758.183 145.234C755.972 143.886 753.485 142.505 750.721 141.088C747.958 139.672 745.263 138.083 742.638 136.321C739.978 134.732 737.49 132.936 735.245 131.036C733 129.101 731.031 126.96 729.373 124.611C727.749 122.262 726.471 119.671 725.539 116.873C724.641 114.074 724.191 110.966 724.191 107.546C724.191 103.297 724.986 99.324 726.609 95.6627C728.233 92.0011 730.478 88.8225 733.414 86.1281C736.316 83.4337 739.771 81.2922 743.777 79.7373C747.785 78.1832 752.137 77.4231 756.905 77.4231C762.224 77.4231 766.923 78.1488 771.033 79.6337C775.144 81.1195 778.563 83.1918 781.293 85.8866C784.021 88.581 786.095 91.828 787.545 95.5932C788.962 99.3584 789.652 103.504 789.652 107.995V109.722C789.652 110.793 789.376 111.449 788.789 111.691C788.236 111.933 787.234 112.036 785.818 112.036H769.824C768.684 112.036 767.855 111.761 767.406 111.242C766.923 110.69 766.681 109.929 766.681 108.997V107.58C766.681 105.093 765.886 103.055 764.263 101.501C762.638 99.9461 760.601 99.186 758.148 99.186C755.558 99.186 753.485 100.05 751.965 101.777C750.445 103.47 749.685 105.542 749.685 107.995C749.685 109.618 749.996 110.931 750.583 112.002C751.17 113.038 752.172 114.04 753.588 115.007C755.005 116.009 756.801 117.045 758.977 118.22C761.188 119.36 763.883 120.811 767.095 122.572C770.757 124.438 774.073 126.545 777.044 128.825C780.015 131.14 782.606 133.592 784.747 136.217C786.923 138.843 788.581 141.676 789.79 144.715C790.965 147.755 791.552 151.003 791.552 154.422C791.552 158.878 790.758 162.955 789.134 166.686C787.511 170.382 785.197 173.56 782.26 176.22C779.289 178.914 775.696 180.987 771.517 182.507C767.337 184.027 762.708 184.787 757.665 184.787C750.652 184.787 744.917 183.923 740.462 182.196C736.005 180.503 732.482 178.223 729.925 175.356C727.369 172.489 725.608 169.207 724.606 165.545C723.639 161.883 723.155 158.084 723.155 154.111V152.695ZM798.703 108.064C798.703 103.815 799.601 99.8425 801.363 96.1118C803.159 92.4154 805.612 89.1684 808.755 86.4052C811.899 83.6416 815.526 81.4646 819.671 79.8416C823.783 78.2179 828.273 77.4231 833.04 77.4231C837.876 77.4231 842.332 78.2179 846.374 79.8416C850.416 81.4646 853.87 83.676 856.703 86.4396C859.57 89.2031 861.815 92.4154 863.439 96.1462C865.063 99.8425 865.857 103.815 865.857 108.064V133.178C865.857 134.317 865.477 135.216 864.751 135.907C864.026 136.563 863.059 136.909 861.919 136.909H824.404V154.111C824.404 155.251 824.645 156.357 825.095 157.393C825.578 158.464 826.2 159.397 826.995 160.226C827.824 161.09 828.791 161.746 829.931 162.264C831.036 162.782 832.315 163.024 833.731 163.024C835.113 163.024 836.391 162.747 837.531 162.23C838.67 161.676 839.603 160.986 840.329 160.123C841.089 159.293 841.642 158.326 842.056 157.255C842.436 156.15 842.643 155.044 842.643 153.904V150.933C842.643 150.346 842.885 149.794 843.334 149.275C843.818 148.757 844.544 148.515 845.476 148.515H863.025C863.819 148.515 864.475 148.688 864.959 149.068C865.408 149.448 865.65 150.139 865.65 151.141V154.077C865.65 158.326 864.855 162.298 863.266 166.029C861.712 169.795 859.467 173.041 856.599 175.839C853.767 178.638 850.312 180.814 846.305 182.403C842.297 183.992 837.876 184.787 833.04 184.787C828.238 184.787 823.783 183.992 819.671 182.403C815.526 180.814 811.865 178.638 808.755 175.839C805.612 173.041 803.159 169.76 801.363 166.029C799.601 162.298 798.703 158.292 798.703 154.042V108.064ZM824.404 119.498H842.643V108.34C842.643 105.991 841.849 103.918 840.225 102.122C838.636 100.291 836.46 99.3939 833.731 99.3939C830.933 99.3939 828.653 100.291 826.96 102.122C825.268 103.918 824.404 105.957 824.404 108.237V119.498Z" fill="#7ED957"/>
<path fill-rule="evenodd" clip-rule="evenodd" d="M106.396 7.60474C161.02 7.60474 205.3 51.8857 205.3 106.508C205.3 161.131 161.02 205.411 106.396 205.411C51.7736 205.411 7.49341 161.131 7.49341 106.508C7.49341 51.8857 51.7736 7.60474 106.396 7.60474Z" stroke="white" stroke-width="14.0001" stroke-miterlimit="22.9256"/>
<path d="M234.261 27.3139C230.942 22.4462 224.305 21.1903 219.439 24.5091L103.221 103.747L77.4098 69.2028C74.7025 65.5911 69.8862 63.922 65.3682 65.4263C59.7178 67.3066 56.6613 73.4105 58.5416 79.0605L79.6661 142.543C80.4644 144.902 81.7664 147.235 83.5333 149.207C90.5228 157.015 102.519 157.68 110.328 150.69L111.706 149.457L232.565 41.2717C236.496 37.7575 237.313 31.7881 234.261 27.3139Z" fill="#7ED957"/>
</svg>
